<svg width="533" height="112" viewBox="0 0 533 112" fill="none" xmlns="http://www.w3.org/2000/svg">
<g clip-path="url(#clip0_414_2599)">
<path d="M532.88 111.24H519.79V60.59C519.62 60.55 519.45 60.51 519.28 60.47C515.33 68.94 511.38 77.42 507.18 86.41C503 77.47 499.02 68.98 495.05 60.49C494.92 60.52 494.79 60.55 494.67 60.58V111.22H481.43V2.40001C481.53 2.35001 481.63 2.29001 481.73 2.24001C490.16 17.26 498.59 32.28 507.17 47.56C515.75 32.27 524.18 17.25 532.88 1.74001V111.23V111.24Z" fill="white"/>
<path d="M194.97 28.34H180.84C180.84 25.79 180.73 23.3 180.86 20.82C181.09 16.52 177.98 13.96 174.56 13.88C171.23 13.8 167.85 16.03 167.66 20.8C167.6 22.25 167.66 23.7 167.66 25.15V89.67C167.66 93.88 169.84 96.56 173.91 97.36C176.65 97.9 180.76 94.83 180.8 91.83C180.92 82.14 180.85 72.45 180.85 62.52H174.24V48.83H194.99V51.04C194.99 63.77 194.93 76.5 195.01 89.24C195.06 98.04 191.52 104.85 183.76 108.99C176.98 112.6 167.22 111.98 160.98 106.2C157.35 102.84 154.93 98.92 154.09 94.05C153.98 93.41 153.95 92.75 153.95 92.09C153.95 67.75 153.91 43.4 153.98 19.06C153.98 14.63 155.74 10.74 158.63 7.36001C161.31 4.22001 164.51 1.91001 168.51 0.810005C176.63 -1.40999 185.35 0.890005 190.77 8.15001C193.7 12.08 194.96 16.44 194.99 21.25C194.99 23.55 194.99 25.85 194.99 28.33" fill="white"/>
<path d="M371.78 63.9H352.19V111.24H338.54V2.78H375.75V16.34H352.24V50.08H371.78V63.9Z" fill="white"/>
<path d="M427.97 2.7H441.96V97.56H462.08V111.24H427.97V2.7Z" fill="white"/>
<path d="M408.58 2.28999H395.18V111.23H408.58V2.28999Z" fill="white"/>
<path d="M74.12 2.7H60.59V111.24H74.12V2.7Z" fill="white"/>
<path d="M41.02 90.61C40.77 83.56 41.05 76.5 40.94 69.45C40.86 64.46 39.53 59.95 35.12 56.91C35.24 56.74 35.32 56.53 35.47 56.43C39.76 53.45 40.98 49.09 40.97 44.18C40.97 36.73 40.99 29.28 40.95 21.83C40.95 20.6 40.8 19.36 40.55 18.16C38.73 9.37999 29.95 2.11999 20.85 2.45999C14.6 2.69999 8.32 2.50999 2.06 2.50999H0V111.25H23.54C23.67 111.25 23.81 111.25 23.93 111.23C33.78 109.4 41.38 100.76 41.02 90.63M14.11 16.29C16.69 16.29 19.27 16.01 21.75 16.36C24.95 16.81 27.23 19.95 27.23 23.23V42.99C27.23 46.73 24.54 49.71 20.78 49.97C18.63 50.12 16.46 50 14.11 50V16.29ZM27.23 90.88C27.23 91.75 27.03 92.6 26.68 93.38C26.59 93.57 26.5 93.77 26.39 93.95C26.18 94.32 25.93 94.68 25.66 95C25.52 95.16 25.38 95.32 25.22 95.47C24.92 95.77 24.58 96.05 24.23 96.29C23.17 97.02 21.91 97.47 20.61 97.49C18.51 97.52 16.42 97.49 14.12 97.49V63.5C15.47 63.62 16.83 63.65 18.17 63.71C18.36 63.71 18.55 63.73 18.74 63.74C19.5 63.79 20.26 63.85 21 63.96C21.74 64.07 22.47 64.21 23.18 64.43C25.62 65.17 27.23 67.44 27.24 70.31C27.25 73.74 27.26 77.16 27.26 80.59C27.26 84.02 27.26 87.44 27.24 90.87" fill="white"/>
<path d="M250.61 87.23C247.98 79.86 245.39 72.47 242.71 65.12C242.3 63.99 242.59 63.54 243.53 62.96C251.07 58.32 255.37 51.82 255.16 42.68C255.04 37.54 255.18 32.39 255.12 27.24C255.09 24.43 255.12 21.58 254.7 18.81C253.33 9.91 244.79 2.36 235.61 2.48C231.52 2.53 227.43 2.48 223.34 2.48H214.19V111.12H227.81V65.23C229.95 70.05 231.74 74.93 233.48 79.83C237.06 89.88 240.61 99.95 244.22 109.99C244.4 110.48 245.01 111.15 245.43 111.16C249.94 111.24 254.46 111.21 259.19 111.21C256.26 103.03 253.42 95.12 250.6 87.21M241.4 43C241.38 46.56 238.55 49.69 235.02 49.96C232.73 50.13 230.42 49.99 227.91 49.99V16.33C230.65 16.33 233.43 16 236.1 16.42C239.25 16.9 241.39 19.95 241.4 23.22C241.44 29.81 241.44 36.41 241.4 43Z" fill="white"/>
<path d="M134.4 55.76C134.4 43.42 134.52 31.08 134.3 18.75C134.25 16.13 133.47 13.26 132.2 10.97C128.99 5.22999 124.18 1.47999 117.38 0.439994C110.66 -0.590006 104.88 1.07999 99.93 5.61999C95.34 9.82999 93.38 15.25 93.37 21.35C93.32 41.67 93.33 61.99 93.37 82.32C93.37 85.99 93.54 89.67 93.77 93.33C94.05 97.87 95.97 101.78 99.13 104.93C104.3 110.08 110.5 112.07 117.85 110.92C126.69 109.54 134.62 100.64 134.46 91.59C134.25 79.65 134.41 67.71 134.41 55.76M120.65 90.93C120.65 94.73 117.62 97.26 114.11 97.41C110.41 97.57 107.4 93.91 107.43 90.87C107.52 82.06 107.5 73.25 107.49 64.45V46.88C107.51 38.12 107.52 29.36 107.43 20.61C107.4 17.57 110.33 13.78 114.13 13.94C117.17 14.07 120.66 16.53 120.66 20.47C120.68 43.96 120.69 67.45 120.66 90.93" fill="white"/>
<path d="M302.14 2.23H291.26C284.87 38.48 278.48 74.76 272.06 111.2H286.2C286.95 106.58 287.69 102.06 288.44 97.45C293.65 97.45 298.66 97.41 303.66 97.51C304.16 97.51 304.86 98.28 305.09 98.84C305.42 99.66 305.4 100.62 305.54 101.51C306.06 104.75 306.59 107.99 307.12 111.24H321.34C314.92 74.79 308.53 38.54 302.14 2.24M290.66 83.62C292.59 70.59 294.51 57.67 296.43 44.76C296.58 44.72 296.73 44.69 296.89 44.65C298.85 57.6 300.82 70.54 302.8 83.62H290.66Z" fill="white"/>
</g>
<defs>
<clipPath id="clip0_414_2599">
<rect width="532.88" height="111.25" fill="white"/>
</clipPath>
</defs>
</svg>
