<svg width="44" height="59" viewBox="0 0 44 59" fill="none" xmlns="http://www.w3.org/2000/svg">
<path d="M22 58.9999C21.4387 59.0041 20.8901 58.8317 20.4306 58.5067C19.9711 58.1817 19.6236 57.7203 19.4365 57.1867C16.567 49.2109 5.86349 37.2712 5.7487 37.1459L5.68175 37.0591C2.82659 33.8753 0.948879 29.9248 0.276313 25.6864C-0.396254 21.448 0.165212 17.104 1.89263 13.181C3.62005 9.25798 6.43922 5.92455 10.0083 3.58493C13.5773 1.24531 17.7429 0 22 0C26.2571 0 30.4227 1.24531 33.9917 3.58493C37.5608 5.92455 40.38 9.25798 42.1074 13.181C43.8348 17.104 44.3963 21.448 43.7237 25.6864C43.0511 29.9248 41.1734 33.8753 38.3183 37.0591L38.2513 37.1459C38.1365 37.2712 27.433 49.2109 24.5635 57.1867C24.3776 57.7211 24.0304 58.1834 23.5706 58.5086C23.1109 58.8338 22.5616 59.0056 22 58.9999Z" fill="#BD1822"/>
<path d="M42 22.2104C42 16.8503 39.8928 11.7097 36.1421 7.91949C32.3914 4.1293 27.3043 2 22 2C16.6957 2 11.6086 4.1293 7.85786 7.91949C4.10714 11.7097 2 16.8503 2 22.2104C2.00015 27.2507 3.87292 32.1073 7.24761 35.8188C7.24761 35.8188 18.2286 48.0316 21.2571 56.4526C21.311 56.6123 21.413 56.7509 21.5488 56.8491C21.6846 56.9472 21.8473 57 22.0143 57C22.1812 57 22.344 56.9472 22.4797 56.8491C22.6155 56.7509 22.7175 56.6123 22.7714 56.4526C25.8 48.0316 36.7714 35.8188 36.7714 35.8188C40.14 32.1049 42.006 27.2483 42 22.2104Z" fill="#BD1822"/>
<path d="M26.997 32.0259C26.9361 30.2763 27.0043 28.5243 26.9775 26.7748C26.958 25.5365 26.6339 24.4173 25.5591 23.6629C25.5884 23.6207 25.6079 23.5686 25.6444 23.5438C26.6899 22.8043 26.9873 21.7223 26.9848 20.5039C26.9848 18.6551 26.9897 16.8063 26.9799 14.9575C26.9799 14.6523 26.9434 14.3446 26.8825 14.0468C26.4389 11.868 24.2991 10.0663 22.0814 10.1507C20.5582 10.2103 19.0277 10.1631 17.502 10.1631H17V37.1478H22.7369C22.7686 37.1478 22.8027 37.1479 22.832 37.1429C25.2325 36.6888 27.0847 34.5447 26.997 32.0308M20.4388 13.5827C21.0675 13.5827 21.6963 13.5132 22.3007 13.6001C23.0806 13.7118 23.6362 14.491 23.6362 15.3049V20.2086C23.6362 21.1367 22.9807 21.8762 22.0643 21.9407C21.5403 21.9779 21.0115 21.9481 20.4388 21.9481V13.5827ZM23.6362 32.0929C23.6362 32.3088 23.5875 32.5197 23.5022 32.7133C23.4803 32.7604 23.4583 32.81 23.4315 32.8547C23.3803 32.9465 23.3194 33.0359 23.2536 33.1153C23.2195 33.155 23.1854 33.1947 23.1464 33.2319C23.0733 33.3064 22.9904 33.3758 22.9051 33.4354C22.6468 33.6166 22.3397 33.7282 22.0229 33.7332C21.5111 33.7406 21.0017 33.7332 20.4412 33.7332V25.2983C20.7702 25.3281 21.1016 25.3355 21.4282 25.3504C21.4745 25.3504 21.5208 25.3554 21.5671 25.3578C21.7524 25.3703 21.9376 25.3851 22.1179 25.4124C22.2983 25.4397 22.4762 25.4745 22.6492 25.5291C23.2439 25.7127 23.6362 26.276 23.6387 26.9882C23.6411 27.8394 23.6435 28.6881 23.6435 29.5393C23.6435 30.3905 23.6435 31.2392 23.6387 32.0904" fill="white"/>
</svg>
